<?xml version="1.0" encoding="utf-8"?>
<!-- Generator: Adobe Illustrator 21.0.1, SVG Export Plug-In . SVG Version: 6.00 Build 0)  -->
<!DOCTYPE svg PUBLIC "-//W3C//DTD SVG 1.1//EN" "http://www.w3.org/Graphics/SVG/1.1/DTD/svg11.dtd">
<svg version="1.1" id="レイヤー_1" xmlns="http://www.w3.org/2000/svg" xmlns:xlink="http://www.w3.org/1999/xlink" x="0px"
	 y="0px" viewBox="0 0 621 202" style="enable-background:new 0 0 621 202;" xml:space="preserve">
<style type="text/css">
	.st0{fill:#1F2C5C;}
	.st1{fill:#005BAC;}
	.st2{fill:#008CD6;}
	.st3{fill:#C9CACA;}
</style>
<g>
	<g>
		<path class="st0" d="M22.2,172.2c13.7,9.3,33.2,5.2,50.3-6.1s31-10.5,31-10.5c12.4-1.1,21.5,5.4,20.5,14.5
			c-1.1,9.1-11.5,16.4-24.3,18.6c33.3-2.4,37.5-24.5,37.5-24.5c4.9-17.6-14.4-28.3-38.5-22.6c25.6-27.7,46.2-29.8,46.2-29.8
			c19-5.8,33.1,5.9,31.6,26.2c-1.6,20.3-17.6,38.9-37.3,47.2c51.2-14.3,57.5-63.7,57.5-63.7c10.6-56.3-53.6-69.9-107.4,5.7
			C48.9,183.9,20,170.1,20,170.1S20.9,171.4,22.2,172.2z"/>
		<path class="st1" d="M31.8,166.7c0,0,48.9-16.2,59.3-77.4c6.6-38.6,18.2-60.2,40-79.1c0,0-65.2,14.7-68.4,76.3
			C59.8,143.8,48.9,153.2,31.8,166.7z"/>
		<path class="st2" d="M39,153.2c0,0,16.9-18.3,16.8-62.2c-0.1-26.8,5.8-42.6,19.1-58.9c0,0-33.3,17.6-29.2,62.4
			C47.2,111.5,48.2,135.9,39,153.2z"/>
		<path class="st3" d="M93.9,106.9c0,0,5.2-9,9-31.9C109,38,141,23,141,23s-19.4,21.7-23,45.5C114,95,93.9,106.9,93.9,106.9z"/>
	</g>
	<g>
		<path class="st0" d="M238.5,104.7v-6.2h8.4v-1.7c0.1-4.3,0.4-7.8,1-10.5s1.7-4.8,3.2-6.5c1.5-1.6,3.4-2.7,5.7-3.4
			c2.3-0.6,5.2-0.9,8.8-0.9h3.8l1,6.7h-4.9c-1.9,0-3.4,0.2-4.5,0.5c-1.2,0.3-2.1,0.8-2.8,1.4c-0.7,0.6-1.3,1.5-1.6,2.9
			c-0.3,1.3-0.6,2.7-0.7,4c-0.1,1.4-0.2,3.3-0.2,5.7v1.7h13v6.2h-13V156h-8.8v-51.3H238.5z"/>
		<path class="st0" d="M289.5,77v56.5c0,2.4,0,4.2,0.1,5.6c0,1.4,0.1,2.7,0.3,4.2c0.1,1.4,0.3,2.5,0.6,3.2c0.3,0.7,0.6,1.4,1.1,2
			s1.1,1,1.8,1.2c0.7,0.2,1.5,0.3,2.5,0.3c0.4,0,2-0.1,4.7-0.3l0.6,6.9c-2.6,0.5-4.6,0.7-6,0.7c-2,0-3.8-0.2-5.2-0.5
			c-1.5-0.3-2.7-0.7-3.8-1.2c-1.1-0.5-1.9-1.3-2.6-2.5s-1.2-2.3-1.6-3.3s-0.7-2.6-0.9-4.8c-0.2-2.2-0.3-4.1-0.3-5.8
			s-0.1-4.2-0.1-7.5V78L289.5,77z"/>
		<path class="st0" d="M319.1,77.7v10.4h-8.8V77.7H319.1z M319.1,98.5V156h-8.8V98.5H319.1z"/>
		<path class="st0" d="M357.4,157.3c-8.2,0-14.6-2.7-19.3-8.1c-4.7-5.4-7.1-12.8-7.1-22c0-8.6,2.4-15.7,7.1-21.3
			c4.7-5.6,10.8-8.5,18.3-8.7c7.1,0,12.7,2.5,16.9,7.5c4.1,5,6.2,11.7,6.2,20.3c0,0.3,0,0.9-0.1,1.9c0,1-0.1,1.7-0.1,2H340
			c0,6.4,1.7,11.4,5,15.2s7.5,5.7,12.7,5.7c6.5,0,12.6-1.9,18.2-5.8l2.7,6.4C373.2,155,366.1,157.3,357.4,157.3z M340.3,122.8h30.6
			c0-5.9-1.3-10.5-4-13.7s-6.2-4.8-10.6-4.8s-8,1.7-10.9,5S340.8,117.1,340.3,122.8z"/>
		<path class="st0" d="M390.1,156v-44.2c0-1.5,0-3.8-0.1-6.7c-0.1-2.9-0.1-5.1-0.1-6.5h7.4l0.7,9.9c3.6-6.6,9.2-9.9,16.8-9.9h1.7
			l0.6,8H415c-5.1,0-9.1,1.5-11.9,4.5s-4.2,6.7-4.2,11.3V156H390.1z"/>
		<path class="st0" d="M458.4,77.7V156h-9.3V77.7H458.4z"/>
		<path class="st0" d="M501.9,97.2c6.2,0,10.8,2,13.7,6.1s4.4,10.2,4.4,18.4V156h-8.8v-28.8c0-2.5,0-4.5-0.1-6
			c0-1.5-0.1-3.2-0.3-4.9c-0.2-1.8-0.4-3.2-0.7-4.2s-0.7-2.1-1.3-3.1c-0.5-1-1.2-1.8-2-2.4c-0.8-0.5-1.8-1-2.9-1.3
			c-1.1-0.3-2.4-0.5-4-0.5c-4.5,0-8.5,1.1-11.8,3.4c-3.3,2.2-5.4,4.8-6.1,7.6V156h-8.8v-43.5l-0.2-14h7.5l0.8,7.4
			c2.1-2.9,5-5.1,8.6-6.6C493.7,97.9,497.6,97.2,501.9,97.2z"/>
		<path class="st0" d="M572.8,152.1c-1.8,1.7-4.1,3-6.9,3.9c-2.8,0.9-5.7,1.3-8.6,1.3c-4.3,0-8.3-0.8-11.8-2.4
			c-3.6-1.6-6.5-3.8-8.8-6.6s-4-6-5.3-9.6c-1.2-3.6-1.9-7.4-1.9-11.5c0-4,0.7-7.8,2-11.4c1.3-3.6,3.1-6.8,5.4-9.6
			c2.3-2.8,5.2-5,8.7-6.6s7.3-2.5,11.5-2.5c3.3,0,6.3,0.4,9.1,1.3c2.7,0.9,4.9,2.1,6.6,3.7l-2.2,6.2c-4-2.7-8.5-4-13.6-4
			c-5.3,0-9.7,2.2-13.2,6.6s-5.3,9.9-5.3,16.5c0,6.6,1.8,12.1,5.3,16.3s8.2,6.3,13.9,6.3c4.6,0,8.9-1.4,12.9-4.3L572.8,152.1z"/>
		<path class="st0" d="M589,156.6c-2.2,0-3.9-0.7-5.1-2.1c-1.2-1.4-1.9-3-1.9-4.8c0-1.9,0.6-3.5,1.8-4.9s2.9-2,5.1-2
			c2.2,0,3.9,0.7,5.1,2c1.2,1.4,1.8,3,1.8,4.9s-0.6,3.5-1.8,4.9C592.9,156,591.2,156.6,589,156.6z"/>
	</g>
</g>
</svg>
