<?xml version="1.0" encoding="utf-8"?>
<!-- Generator: Adobe Illustrator 21.0.1, SVG Export Plug-In . SVG Version: 6.00 Build 0)  -->
<!DOCTYPE svg PUBLIC "-//W3C//DTD SVG 1.1//EN" "http://www.w3.org/Graphics/SVG/1.1/DTD/svg11.dtd">
<svg version="1.1" id="レイヤー_1" xmlns="http://www.w3.org/2000/svg" xmlns:xlink="http://www.w3.org/1999/xlink" x="0px"
	 y="0px" viewBox="0 0 800 233" style="enable-background:new 0 0 800 233;" xml:space="preserve">
<style type="text/css">
	.st0{fill:#00023E;}
</style>
<g>
	<path class="st0" d="M115.9,182.1c-4.9,0-9.8-0.1-14.1-2c-7-3.1-7.6-8.2-7.6-13.8v-22h9.5v21.6c0,2.6-0.2,6.3,2.5,8.3
		c2.6,1.9,7.8,2.1,11.2,2.1h10.8v5.7H115.9z"/>
	<path class="st0" d="M206.8,175.7c-3.6,5.4-13.3,6.8-20.8,6.8c-7.3,0-15-1.4-19-6.2c-2.4-2.9-2.5-6.1-2.5-9.4v-22.6h9.5v22.5
		c0,1.8,0.1,4,1,5.7c1.9,3.4,7.1,4.5,11.7,4.5c3.2,0,6.7-0.5,9.3-1.9c3.6-2,3.4-5.6,3.4-8.6v-22.2h9.4v22.1
		C208.7,169.3,208.6,173,206.8,175.7z"/>
	<path class="st0" d="M282.9,182.1l-24-29v29h-9.1v-37.8h11.7l23.7,29.3v-29.3h9.1v37.8H282.9z"/>
	<path class="st0" d="M374,182.1l-5.1-9.3h-22.2l-5.2,9.3h-10.6l21.3-37.8h11.6l20.8,37.8H374z M357.8,150.9l-8.7,16.1h17.2
		L357.8,150.9z"/>
	<path class="st0" d="M460.5,178.7c-4.2,3.4-10.7,3.3-16.6,3.3h-23.3v-5.7h22.8c5.1,0,10.5-0.5,10.5-5.2c0-1.6-0.7-3-2.4-4.1
		c-2.1-1.3-5.8-1.2-8.3-1.2h-6.6c-3.2,0-6.9-0.1-9.9-0.9c-5.4-1.4-8.2-5.3-8.2-9.3c0-2.9,1.5-6.1,4.5-8.2c4.2-2.9,10.1-3.1,15.5-3.1
		h23.1v5.7h-22c-5.2,0-10.8,0.2-10.8,5.1c0,4.5,5.6,4.8,10.4,4.8h5.4c3.8,0,8.1,0.1,11.7,1.1c5.6,1.6,7.9,6.1,7.9,10.2
		C464.2,173.8,463,176.6,460.5,178.7z"/>
	<path class="st0" d="M525.1,182.1c-4.3,0-8.5-0.2-12.6-1.4c-9.3-2.7-12.2-10.7-12.2-17.3c0-5.1,1.7-10.5,6.3-14.5
		c4.6-3.8,11.9-4.6,18.4-4.6H542v5.7h-16.1c-3.2,0-6.6,0.2-9.4,1.4c-5,2.1-6,8-6,11.8c0,2.9,0.5,6.2,2.4,8.8c2.8,4,7.9,4.5,13.5,4.5
		H542v5.7H525.1z"/>
	<path class="st0" d="M618.8,182.1l-5.1-9.3h-22.2l-5.2,9.3h-10.6l21.3-37.8h11.6l20.8,37.8H618.8z M602.7,150.9L594,167h17.2
		L602.7,150.9z"/>
	<path class="st0" d="M706.2,164.1c-3.8,4.1-9.5,4.5-15.7,4.5h-15.1v13.5H666v-37.8h24.1c4,0,8.2,0,11.7,1.5
		c5.1,2.2,7.5,6.3,7.5,10.5C709.3,159.1,708.3,161.8,706.2,164.1z M697.2,152c-2-1.9-4.6-2-7.7-2h-14.1v12.9h14.2
		c6.5,0,9.4-1.8,9.4-6.7C699,154.6,698.6,153.3,697.2,152z"/>
	<path class="st0" d="M769.2,182.1c-4.2,0-10-0.3-13.8-1.8c-8.3-3-11-10.6-11-16.8c0-4.8,1.1-9,4.9-13c5-5.2,11-6.2,19.4-6.2H785
		v5.7h-14.7c-5.3,0-9.8,0.3-13,3.7c-1.9,2.1-2.1,4.2-2.3,6.6H785v5.7h-29.9c0.3,7.4,5.5,10.4,15.3,10.4H785v5.7H769.2z"/>
	<path class="st0" d="M23.7,174.3c-3.6-9-5.6-18.6-5.6-28.7c0-47.8,44.7-86.6,99.8-86.6c13.6,0,26.6,2.4,38.5,6.7h0
		c-14.5-9.6-32.2-15.2-51.2-15.2C55.4,50.5,15,89.3,15,137.1C15,150.4,18.1,163,23.7,174.3L23.7,174.3z"/>
</g>
</svg>
