<?xml version="1.0" encoding="utf-8"?>
<!-- Generator: Adobe Illustrator 21.0.1, SVG Export Plug-In . SVG Version: 6.00 Build 0)  -->
<!DOCTYPE svg PUBLIC "-//W3C//DTD SVG 1.1//EN" "http://www.w3.org/Graphics/SVG/1.1/DTD/svg11.dtd">
<svg version="1.1" id="レイヤー_1" xmlns="http://www.w3.org/2000/svg" xmlns:xlink="http://www.w3.org/1999/xlink" x="0px"
	 y="0px" viewBox="0 0 660 233" style="enable-background:new 0 0 660 233;" xml:space="preserve">
<style type="text/css">
	.st0{fill:#004EA2;}
	.st1{fill:#9FA0A0;}
</style>
<g>
	<g>
		<path class="st0" d="M15.9,52h31v12.6h0.3c4.6-10.3,11.4-14.2,22.3-14.2c22.1,0,30.3,17.2,30.3,37.2c0,18.7-8.6,35-29.4,35
			c-8.9,0-15.6-3-20.8-10.5h-0.3v36.7H15.9V52z M56.8,101.9c7,0,8.2-7,8.2-14.3s-1.2-15-8.5-15c-7.2,0-8.2,7.7-8.2,14.2
			C48.4,94.9,49.4,101.9,56.8,101.9z"/>
		<path class="st0" d="M183.9,121h-31.5v-11.9h-0.3c-4,9.7-13.1,13.5-22.5,13.5c-17.7,0-24.2-9.3-24.2-22.7v-48h33.4v39.7
			c0,4,0,9.4,5.8,9.4c6,0,6-5.4,6-9.4V52h33.3V121z"/>
		<path class="st0" d="M193.3,21.6h33.4v39.2h0.3c5.2-7.4,11.9-10.5,20.8-10.5c20.8,0,29.4,16.3,29.4,35c0,20-8.2,37.2-30.3,37.2
			c-10.9,0-17.6-3.8-22.3-14.2h-0.3v12.6h-31V21.6z M233.9,100.2c7.3,0,8.5-7.7,8.5-15c0-7.2-1.2-14.3-8.2-14.3
			c-7.4,0-8.5,7.2-8.5,15.1C225.7,92.6,226.8,100.2,233.9,100.2z"/>
		<path class="st0" d="M314.5,52v15.6h0.3c4-9.8,10.6-17.2,21.1-17.2c2,0,4.1,0.3,5.4,0.7v27.7c-1.6-0.7-4.5-1.1-7.6-1.1
			c-9.3,0-17.1,8.1-17.1,18.3v25h-33.4v-69C283.2,51.9,314.5,51.9,314.5,52z"/>
		<path class="st0" d="M379.5,44.7h-33.4v-23h33.4V44.7z M346.1,52h33.4v69h-33.4V52z"/>
		<path class="st0" d="M438.5,121v-12.6h-0.3c-4.6,10.3-11.4,14.2-22.3,14.2c-22.1,0-30.3-17.2-30.3-37.2c0-18.7,8.6-35,29.4-35
			c8.9,0,15.6,3,20.8,10.5h0.3V21.6h33.4V121H438.5z M428.5,71c-7,0-8.2,7.2-8.2,14.3c0,7.3,1.2,15,8.5,15c7.2,0,8.2-7.7,8.2-14.2
			C437,78.2,435.9,71,428.5,71z"/>
		<path class="st0" d="M480,123.9c6.4,3.7,16.2,6.6,26,6.6c14.4,0,21.9-6.2,21.9-21.1h-0.3c-5.2,7.4-13.2,11.5-22.7,11.5
			c-20.7,0-29.4-16-29.4-34.3c0-19.5,8.3-36.3,29.7-36.3c11.4,0,21.2,5.3,23.2,15.6h0.3v-14h31.2v62.2c0,18.5-9.1,36.3-44,36.3
			c-14.7,0-26.8-1.6-35.9-4.2V123.9z M519.1,99.5c7.8,0,8.7-7.4,8.7-13.4c0-6.2-0.9-14.3-8.6-14.3c-7.3,0-8.2,8.1-8.2,13.9
			C511,92.1,512,99.5,519.1,99.5z"/>
		<path class="st0" d="M597.8,94.5c0.5,8.6,8.6,10.6,18.4,10.6c9.1,0,17.4-1.6,22.7-4.4v17.9c-8.9,2.8-19.5,4-31.1,4
			c-27.9,0-42.8-13.5-42.8-37.4c0-23.2,14.8-34.8,42.8-34.8c26.8,0,36.2,16.7,36.2,40v4.1H597.8z M615,79.9c0-5.3-0.8-13.6-8.3-13.6
			c-7.7,0-9.4,8.2-9,13.6H615z"/>
	</g>
	<path class="st1" d="M297.2,155.1c65.1,0,126.7,7.7,181.7,21.5v-28.5h-463v63.4C90.4,176.4,189,155.1,297.2,155.1z"/>
</g>
</svg>
