<?xml version="1.0" encoding="utf-8"?>
<!-- Generator: Adobe Illustrator 21.0.1, SVG Export Plug-In . SVG Version: 6.00 Build 0)  -->
<!DOCTYPE svg PUBLIC "-//W3C//DTD SVG 1.1//EN" "http://www.w3.org/Graphics/SVG/1.1/DTD/svg11.dtd">
<svg version="1.1" id="レイヤー_1" xmlns="http://www.w3.org/2000/svg" xmlns:xlink="http://www.w3.org/1999/xlink" x="0px"
	 y="0px" viewBox="0 0 800 233" style="enable-background:new 0 0 800 233;" xml:space="preserve">
<style type="text/css">
	.st0{fill:#449FBA;}
	.st1{fill:#0B5B94;}
	.st2{fill:#D58524;}
	.st3{fill:#221714;}
</style>
<g>
	<rect x="12" y="51" class="st0" width="19.9" height="130.8"/>
	<rect x="39.8" y="68.4" class="st1" width="19.9" height="98.2"/>
	<rect x="67.3" y="89.1" class="st2" width="19.9" height="92.9"/>
	<rect x="95.1" y="68.4" class="st1" width="19.9" height="98.2"/>
	<rect x="122.9" y="51" class="st0" width="19.9" height="130.8"/>
	<path class="st3" d="M623.7,165.3v-95h19.7c14.2,0,24.6,1.1,31,3.4c9.3,3.4,16.3,8.9,21.6,16.7c5.1,8.1,7.8,17.6,7.8,28.6
		c0,9.5-1.9,18-6.1,25.2c-4.2,7.2-9.5,12.7-16.1,15.9c-6.6,3.6-15.7,5.1-27.8,5.1H623.7z M632.8,156.1h11c13.1,0,22.1-0.8,27.4-2.3
		c7-2.1,12.9-6.4,16.7-12.7c4.2-5.9,6.1-13.6,6.1-22.1c0-9.1-2.1-17-6.6-23.5s-10.6-10.8-18.7-13.4c-5.9-1.7-15.7-2.8-29.5-2.8h-6.6
		V156.1L632.8,156.1z"/>
	<path class="st3" d="M751.3,93c10.8,0,19.7,4,26.9,11.7c6.4,7,9.8,15.7,9.8,25.4s-3.4,18.4-10.2,25.7c-6.8,7.2-15.7,11-26.3,11
		c-10.8,0-19.7-3.8-26.3-11c-6.8-7.2-10.2-15.9-10.2-25.7s3.4-18.2,9.8-25.2C731.6,97,740.3,93,751.3,93 M751.3,101.9
		c-7.6,0-14,2.8-19.5,8.5c-5.3,5.5-8.3,12.1-8.3,20.1c0,5.1,1.3,9.8,3.8,14.2c2.3,4.5,5.7,7.8,10,10.2c4.2,2.3,8.9,3.6,13.8,3.6
		c4.9,0,9.5-1.1,13.8-3.6c4.2-2.3,7.6-5.7,10-10.2c2.3-4.5,3.8-9.1,3.8-14.2c0-8.1-2.8-14.6-8.3-20.1
		C765.1,104.8,758.7,101.9,751.3,101.9"/>
	<polygon class="st3" points="193.9,165.3 207.7,70.3 209.2,70.3 247.8,148.3 285.9,70.3 287.6,70.3 301.4,165.3 292.1,165.3 
		282.5,97.2 249,165.3 246.5,165.3 212.6,96.8 203.2,165.3 	"/>
	<path class="st3" d="M372.2,141.9l7.6,4c-2.3,4.9-5.3,8.9-8.7,11.9c-3.4,3.2-6.8,5.3-11,6.8c-4.2,1.5-8.7,2.3-14,2.3
		c-11.4,0-20.4-3.8-26.9-11.2c-6.4-7.6-9.8-15.9-9.8-25.4c0-8.9,2.8-16.7,8.3-24c6.8-8.9,16.1-13.4,28-13.4
		c11.9,0,21.4,4.7,28.8,13.8c5.1,6.4,7.8,14.4,7.8,24.2H319c0.2,8.3,3,14.8,7.8,20.1c5.1,5.3,11.2,7.8,18.7,7.8
		c3.6,0,7-0.6,10.4-1.7c3.4-1.3,6.1-3,8.7-4.9C366.9,149.8,369.5,146.4,372.2,141.9 M372.2,123.1c-1.1-4.9-3-8.7-5.3-11.4
		c-2.1-3-5.3-5.3-9.1-6.8c-3.8-1.7-7.8-2.8-11.9-2.8c-6.8,0-12.9,2.1-17.8,6.6c-3.6,3.4-6.4,8.1-8.3,14.6h52.4V123.1z"/>
	<path class="st3" d="M464,67.7v97.5h-8.9v-12.1c-3.8,4.7-8.1,8.3-12.9,10.4c-4.7,2.1-10,3.6-15.5,3.6c-10,0-18.4-3.6-25.4-10.8
		c-7-7.2-10.6-15.9-10.6-26.3c0-10.2,3.6-18.9,10.6-25.9c7-7,15.7-10.8,25.7-10.8c5.7,0,11,1.3,15.7,3.8c4.7,2.5,8.9,6.1,12.5,11
		V67.7H464L464,67.7z M427.8,101.9c-5.1,0-9.8,1.3-14,3.8c-4.2,2.3-7.8,5.9-10.2,10.4c-2.3,4.5-3.8,9.3-3.8,14.2
		c0,4.9,1.3,9.8,3.8,14.2c2.8,4.5,5.9,8.1,10.2,10.6c4.2,2.3,8.9,3.8,13.8,3.8s9.8-1.3,14.2-3.8c4.5-2.3,7.8-5.7,10.2-10.2
		c2.3-4.2,3.6-9.1,3.6-14.4c0-8.3-2.8-14.8-8.1-20.4C442.4,104.6,435.8,101.9,427.8,101.9"/>
	<path class="st3" d="M489.5,66c1.9,0,3.8,0.6,5.3,2.1c1.5,1.5,2.1,3.4,2.1,5.3s-0.6,3.8-2.1,5.3c-1.5,1.5-3.2,2.1-5.3,2.1
		c-1.9,0-3.8-0.6-5.1-2.1c-1.5-1.5-2.1-3.2-2.1-5.3c0-1.9,0.6-3.8,2.1-5.3C485.7,66.7,487.4,66,489.5,66 M484.8,94.9h9.1v70.4h-9.1
		V94.9z"/>
	<path class="st3" d="M580,94.9v70.4h-8.9v-12.1c-3.8,4.7-8.1,8.3-12.9,10.4c-4.7,2.1-10,3.6-15.5,3.6c-10,0-18.4-3.6-25.4-10.8
		c-7-7.2-10.6-15.9-10.6-26.3c0-10.2,3.6-18.9,10.6-25.9c7-7,15.7-10.8,25.7-10.8c5.7,0,11,1.3,15.7,3.8c4.7,2.3,8.9,6.1,12.5,11
		V95.1h8.9V94.9z M544,101.9c-5.1,0-9.8,1.3-14,3.8c-4.2,2.3-7.8,5.9-10.2,10.4c-2.3,4.5-3.8,9.3-3.8,14.2c0,4.9,1.3,9.8,3.8,14.2
		c2.8,4.5,5.9,8.1,10.2,10.6c4.2,2.3,8.9,3.8,13.8,3.8c4.9,0,9.8-1.3,14.2-3.8c4.5-2.3,7.8-5.7,10.2-10.2c2.3-4.2,3.6-9.1,3.6-14.4
		c0-8.3-2.8-14.8-8.1-20.4C558.4,104.6,551.6,101.9,544,101.9"/>
</g>
</svg>
