<?xml version="1.0" encoding="utf-8"?>
<!-- Generator: Adobe Illustrator 21.0.1, SVG Export Plug-In . SVG Version: 6.00 Build 0)  -->
<!DOCTYPE svg PUBLIC "-//W3C//DTD SVG 1.1//EN" "http://www.w3.org/Graphics/SVG/1.1/DTD/svg11.dtd">
<svg version="1.1" id="レイヤー_1" xmlns="http://www.w3.org/2000/svg" xmlns:xlink="http://www.w3.org/1999/xlink" x="0px"
	 y="0px" viewBox="0 0 800 170" style="enable-background:new 0 0 800 170;" xml:space="preserve">
<style type="text/css">
	.st0{fill:#533C1A;}
	.st1{fill:#AB9366;}
	.st2{fill:#EE7300;}
</style>
<g>
	<g>
		<rect x="11.1" y="11.6" class="st0" width="22.3" height="146.8"/>
		<rect x="42.3" y="31" class="st1" width="22.3" height="110.1"/>
		<rect x="73.4" y="54.3" class="st2" width="22.3" height="104.1"/>
		<rect x="104.5" y="31" class="st1" width="22.3" height="110.1"/>
		<rect x="135.6" y="11.6" class="st0" width="22.3" height="146.8"/>
	</g>
	<g>
		<g>
			<polygon points="215.3,115.3 229.8,115.3 229.8,153.8 236,153.8 236,115.3 250.5,115.3 250.5,109.9 215.3,109.9 			"/>
			<polygon points="265.3,133.9 287.8,133.9 287.8,128.6 265.3,128.6 265.3,115.3 289.5,115.3 289.5,109.9 259.1,109.9 259.1,153.8 
				289.7,153.8 289.7,148.4 265.3,148.4 			"/>
			<path d="M328.9,137.2c-0.1,1.7-0.5,3.4-1.1,4.9c-0.6,1.5-1.4,2.8-2.5,3.9c-1,1.1-2.3,1.9-3.7,2.6c-1.4,0.6-3.1,0.9-5,0.9
				c-2.5,0-4.7-0.5-6.6-1.4c-1.8-1-3.3-2.2-4.5-3.8c-1.2-1.6-2-3.5-2.6-5.7c-0.6-2.2-0.8-4.5-0.8-7c0-2.2,0.3-4.4,0.8-6.5
				c0.6-2.1,1.4-3.9,2.6-5.5c1.2-1.6,2.7-2.9,4.5-3.8c1.8-1,4-1.4,6.5-1.4c3,0,5.6,0.8,7.7,2.3c2.1,1.5,3.6,3.8,4.2,6.8l0,0.2h6.3
				l0-0.3c-0.3-2.3-1-4.4-2.1-6.2c-1.1-1.8-2.4-3.3-4-4.5c-1.6-1.2-3.4-2.1-5.5-2.7c-2-0.6-4.2-0.9-6.5-0.9c-3.3,0-6.3,0.6-8.9,1.8
				c-2.6,1.2-4.8,2.9-6.5,5c-1.7,2.1-3.1,4.5-4,7.3c-0.9,2.8-1.3,5.8-1.3,9c0,3.2,0.4,6.2,1.3,8.9c0.8,2.8,2.1,5.2,3.8,7.2
				c1.7,2,3.8,3.7,6.3,4.8c2.5,1.2,5.5,1.8,8.9,1.8c5.6,0,10.1-1.6,13.3-4.6c3.2-3.1,5.2-7.4,5.7-12.9l0-0.3h-6.3L328.9,137.2z"/>
			<polygon points="373.5,128.6 351.1,128.6 351.1,109.9 344.9,109.9 344.9,153.8 351.1,153.8 351.1,133.9 373.5,133.9 373.5,153.8 
				379.7,153.8 379.7,109.9 373.5,109.9 			"/>
			<polygon points="407.1,115.3 421.5,115.3 421.5,153.8 427.8,153.8 427.8,115.3 442.2,115.3 442.2,109.9 407.1,109.9 			"/>
			<path d="M481.5,115.9c-1.8-2.1-4-3.8-6.6-5.1c-2.6-1.3-5.7-1.9-9.2-1.9c-3.5,0-6.5,0.6-9.2,1.9c-2.6,1.3-4.8,3-6.6,5.1
				c-1.8,2.1-3.1,4.6-4,7.3c-0.9,2.7-1.3,5.6-1.3,8.6c0,3,0.4,5.9,1.3,8.6c0.9,2.8,2.2,5.2,4,7.3c1.8,2.1,4,3.8,6.6,5.1
				c2.6,1.2,5.7,1.9,9.2,1.9c3.5,0,6.5-0.6,9.2-1.9c2.6-1.2,4.8-3,6.6-5.1c1.8-2.1,3.1-4.6,4-7.3c0.9-2.7,1.3-5.6,1.3-8.6
				s-0.4-5.9-1.3-8.6C484.5,120.5,483.2,118,481.5,115.9z M465.7,149.4c-2.6,0-4.8-0.5-6.7-1.5c-1.9-1-3.4-2.4-4.6-4
				c-1.2-1.7-2.1-3.6-2.6-5.7c-0.6-2.1-0.8-4.2-0.8-6.4s0.3-4.3,0.8-6.4c0.6-2.1,1.4-4,2.6-5.7c1.2-1.7,2.7-3,4.6-4
				c1.9-1,4.1-1.5,6.7-1.5c2.6,0,4.8,0.5,6.7,1.5c1.9,1,3.4,2.4,4.6,4c1.2,1.7,2.1,3.6,2.6,5.7c0.6,2.1,0.8,4.2,0.8,6.4
				s-0.3,4.3-0.8,6.4c-0.6,2.1-1.4,4-2.6,5.7c-1.2,1.7-2.7,3-4.6,4C470.5,148.9,468.3,149.4,465.7,149.4z"/>
			<polygon points="532.4,109.9 524.2,109.9 502.6,131.2 502.6,109.9 496.3,109.9 496.3,153.8 502.6,153.8 502.6,138.4 509.5,132 
				525,153.7 525.1,153.8 533,153.8 513.8,127.7 			"/>
			<path d="M567.5,137.9c0,3.8-0.9,6.7-2.8,8.7c-1.9,1.9-4.6,2.9-8.2,2.9c-3.8,0-6.7-1-8.8-2.9c-2-1.9-3-4.9-3-8.7v-27.9h-6.3v27.9
				c0,5.8,1.6,10.2,4.8,12.9c3.2,2.7,7.6,4,13.2,4c5.5,0,9.8-1.4,12.8-4.2c3-2.8,4.5-7.1,4.5-12.7v-27.9h-6.3V137.9z"/>
			<path d="M613.9,132.6c-1.3-0.9-2.8-1.7-4.5-2.2c-1.7-0.5-3.4-1-5.1-1.4c-1.7-0.4-3.4-0.8-5.1-1.1c-1.6-0.3-3.1-0.8-4.4-1.3
				c-1.3-0.5-2.3-1.2-3.1-2c-0.7-0.8-1.1-1.8-1.1-3.1c0-1.4,0.3-2.5,0.8-3.4c0.5-0.9,1.2-1.6,2.1-2.2c0.9-0.5,1.9-0.9,3-1.2
				c1.2-0.2,2.3-0.4,3.5-0.4c2.9,0,5.4,0.7,7.2,2.1c1.9,1.3,3,3.6,3.3,6.6l0,0.2h5.9l0-0.3c-0.1-2.4-0.5-4.5-1.4-6.3
				c-0.8-1.7-2-3.2-3.5-4.4c-1.5-1.1-3.2-2-5.1-2.5c-1.9-0.5-4-0.8-6.3-0.8c-2,0-4,0.3-5.9,0.8c-1.9,0.5-3.6,1.3-5.1,2.3
				c-1.5,1-2.7,2.4-3.6,4c-0.9,1.6-1.4,3.6-1.4,5.8c0,2,0.4,3.7,1.2,5.1c0.8,1.3,1.9,2.5,3.2,3.3c1.3,0.8,2.9,1.5,4.5,2
				c1.7,0.5,3.4,1,5.1,1.3c1.7,0.4,3.3,0.7,4.9,1.1l0.1,0c1.6,0.4,3.1,0.8,4.4,1.4c1.3,0.6,2.3,1.3,3.1,2.2c0.8,0.9,1.1,2.1,1.1,3.5
				c0,1.5-0.3,2.8-0.9,3.8c-0.6,1-1.5,1.8-2.5,2.3c-1,0.6-2.2,1-3.5,1.2c-2.9,0.5-5.8,0.5-8.5-0.2c-1.5-0.4-2.8-1-4-1.8
				c-1.1-0.8-2-1.9-2.7-3.2c-0.7-1.3-1-2.8-1-4.6V139h-6v0.2c0,2.7,0.5,5,1.4,6.9c1,1.9,2.3,3.6,4,4.8c1.7,1.2,3.6,2.2,5.8,2.8
				c2.2,0.6,4.5,0.9,7,0.9c2,0,4-0.2,6-0.7c2-0.5,3.9-1.2,5.5-2.3c1.6-1,3-2.4,4.1-4.1c1.1-1.7,1.6-3.7,1.6-6c0-2.2-0.4-4-1.2-5.5
				C616.4,134.7,615.3,133.5,613.9,132.6z"/>
			<polygon points="656.5,128.6 634.2,128.6 634.2,109.9 627.9,109.9 627.9,153.8 634.2,153.8 634.2,133.9 656.5,133.9 656.5,153.8 
				662.8,153.8 662.8,109.9 656.5,109.9 			"/>
			<rect x="677.5" y="109.9" width="6.3" height="43.9"/>
			<polygon points="720.4,145.9 706.9,110.1 706.9,109.9 698.6,109.9 698.6,153.8 704.5,153.8 704.5,118.5 717.7,153.6 717.8,153.8 
				723,153.8 736.3,118.5 736.3,153.8 742.2,153.8 742.2,109.9 733.9,109.9 			"/>
			<path d="M771.7,109.9H765l-16.9,43.5l-0.1,0.3h6.4l4.9-13.1h18l4.7,13.1h6.9L771.7,109.9z M775.2,135.4h-14l7.1-19.4L775.2,135.4
				z"/>
		</g>
		<g>
			<path d="M592.6,83V18.1H606c9.7,0,16.7,0.8,21.1,2.3c6.3,2.2,11.2,6,14.7,11.5c3.5,5.4,5.3,11.9,5.3,19.4
				c0,6.5-1.4,12.2-4.2,17.2c-2.8,4.9-6.5,8.6-11,10.9c-4.5,2.4-10.8,3.5-18.8,3.5H592.6z M598.8,76.9h7.5c9,0,15.2-0.6,18.7-1.7
				c4.9-1.6,8.7-4.4,11.5-8.6c2.8-4.1,4.2-9.2,4.2-15.1c0-6.3-1.5-11.6-4.6-16c-3-4.4-7.2-7.5-12.6-9.1c-4.1-1.2-10.8-1.9-20.1-1.9
				h-4.6V76.9z"/>
			<path d="M679.7,33.8c7.4,0,13.5,2.7,18.4,8c4.4,4.9,6.6,10.7,6.6,17.3c0,6.7-2.3,12.6-7,17.6c-4.7,5-10.7,7.5-18,7.5
				c-7.4,0-13.4-2.5-18-7.5c-4.7-5-7-10.9-7-17.6c0-6.6,2.2-12.4,6.6-17.3C666.1,36.5,672.3,33.8,679.7,33.8z M679.7,39.8
				c-5.2,0-9.6,1.9-13.3,5.7c-3.7,3.8-5.5,8.4-5.5,13.8c0,3.5,0.8,6.7,2.5,9.7c1.7,3,3.9,5.3,6.8,7c2.9,1.6,6,2.5,9.5,2.5
				c3.4,0,6.5-0.8,9.4-2.5c2.9-1.6,5.1-4,6.8-7c1.7-3,2.5-6.2,2.5-9.7c0-5.4-1.9-10-5.6-13.8C689.2,41.7,684.8,39.8,679.7,39.8z"/>
			<path d="M299.5,83l9.3-64.9h1.1l26.4,53.3l26.1-53.3h1.1l9.3,64.9h-6.4l-6.4-46.4L337,83h-1.7l-23.2-46.8L305.7,83H299.5z"/>
			<path d="M421.2,67.1l5.2,2.7c-1.7,3.4-3.7,6.1-5.9,8.1c-2.2,2.1-4.7,3.6-7.6,4.7c-2.8,1.1-6,1.6-9.5,1.6c-7.8,0-14-2.6-18.4-7.7
				c-4.4-5.1-6.6-10.9-6.6-17.4c0-6.1,1.9-11.5,5.6-16.3c4.7-6,11.1-9.1,19-9.1c8.2,0,14.7,3.1,19.6,9.3c3.5,4.4,5.2,9.9,5.3,16.4
				h-43.2c0.1,5.6,1.9,10.1,5.3,13.7c3.4,3.5,7.7,5.3,12.8,5.3c2.4,0,4.8-0.4,7.1-1.3c2.3-0.8,4.3-2,5.9-3.4
				C417.5,72.5,419.3,70.2,421.2,67.1z M421.2,54.2c-0.8-3.3-2-5.9-3.6-7.9c-1.6-2-3.7-3.6-6.2-4.8c-2.6-1.2-5.3-1.8-8.2-1.8
				c-4.7,0-8.8,1.5-12.1,4.5c-2.5,2.2-4.3,5.5-5.6,9.9H421.2z"/>
			<path d="M483.8,16.5V83h-6.1v-8.2c-2.6,3.1-5.5,5.5-8.7,7.1c-3.2,1.6-6.7,2.4-10.6,2.4c-6.8,0-12.6-2.5-17.4-7.4
				c-4.8-4.9-7.2-10.9-7.2-18c0-6.9,2.4-12.8,7.3-17.7c4.8-4.9,10.7-7.4,17.5-7.4c3.9,0,7.5,0.8,10.7,2.5c3.2,1.7,6,4.2,8.4,7.5
				V16.5H483.8z M459.1,39.7c-3.4,0-6.6,0.8-9.5,2.6c-2.9,1.7-5.2,4.1-7,7.1c-1.7,3.1-2.6,6.3-2.6,9.7c0,3.4,0.9,6.6,2.6,9.7
				c1.8,3.1,4.1,5.5,7,7.2c2.9,1.7,6.1,2.6,9.4,2.6c3.4,0,6.6-0.9,9.6-2.6c3-1.7,5.4-4,7-6.9c1.6-2.9,2.4-6.2,2.4-9.8
				c0-5.5-1.8-10.2-5.5-13.9C468.9,41.6,464.4,39.7,459.1,39.7z"/>
			<path d="M501,15.3c1.4,0,2.6,0.5,3.6,1.5c1,1,1.5,2.2,1.5,3.6c0,1.4-0.5,2.6-1.5,3.6c-1,1-2.2,1.5-3.6,1.5
				c-1.4,0-2.6-0.5-3.5-1.5c-1-1-1.5-2.2-1.5-3.6c0-1.4,0.5-2.6,1.5-3.6C498.4,15.8,499.6,15.3,501,15.3z M497.9,35h6.2v48h-6.2V35z
				"/>
			<path d="M562.9,35v48h-6.1v-8.2c-2.6,3.1-5.5,5.5-8.7,7.1c-3.2,1.6-6.8,2.4-10.6,2.4c-6.8,0-12.6-2.5-17.4-7.4
				c-4.8-4.9-7.2-10.9-7.2-18c0-6.9,2.4-12.8,7.3-17.7c4.9-4.9,10.7-7.4,17.5-7.4c4,0,7.5,0.8,10.7,2.5c3.2,1.7,6,4.2,8.4,7.5V35
				H562.9z M538.2,39.7c-3.5,0-6.6,0.8-9.5,2.6c-2.9,1.7-5.2,4.1-6.9,7.1c-1.7,3.1-2.6,6.3-2.6,9.7c0,3.4,0.9,6.6,2.6,9.7
				c1.7,3.1,4.1,5.5,7,7.2c2.9,1.7,6,2.6,9.4,2.6c3.4,0,6.6-0.9,9.6-2.6c3-1.7,5.4-4,7-6.9c1.6-2.9,2.4-6.2,2.4-9.8
				c0-5.5-1.8-10.2-5.5-13.9C548,41.6,543.5,39.7,538.2,39.7z"/>
		</g>
	</g>
</g>
</svg>
