<?xml version="1.0" encoding="utf-8"?>
<!-- Generator: Adobe Illustrator 21.0.1, SVG Export Plug-In . SVG Version: 6.00 Build 0)  -->
<!DOCTYPE svg PUBLIC "-//W3C//DTD SVG 1.1//EN" "http://www.w3.org/Graphics/SVG/1.1/DTD/svg11.dtd">
<svg version="1.1" id="レイヤー_1" xmlns="http://www.w3.org/2000/svg" xmlns:xlink="http://www.w3.org/1999/xlink" x="0px"
	 y="0px" viewBox="0 0 615 233" style="enable-background:new 0 0 615 233;" xml:space="preserve">
<style type="text/css">
	.st0{fill:#231815;}
	.st1{fill:#43A8C5;}
	.st2{fill:#065E9D;}
	.st3{fill:#D86F18;}
</style>
<g>
	<g>
		<g>
			<path class="st0" d="M268.2,181.6h3.5V217h-3.5V181.6z"/>
			<path class="st0" d="M281.8,190.8h3.4v4.7c1.3-1.8,2.8-3.1,4.5-4c1.6-0.9,3.5-1.3,5.3-1.3c2,0,3.7,0.5,5.3,1.5
				c1.5,1,2.7,2.4,3.4,4c0.7,1.7,1.1,4.3,1.1,7.8V217h-3.4v-12.5c0-3-0.2-5-0.4-6c-0.4-1.7-1.1-3.1-2.3-3.9
				c-1.1-0.9-2.6-1.3-4.3-1.3c-2,0-3.8,0.7-5.5,2c-1.6,1.3-2.7,3-3.2,5c-0.3,1.3-0.5,3.7-0.5,7.1v9.6h-3.4V190.8z"/>
			<path class="st0" d="M316.3,181.1h3.4v9.7h5.3v2.9h-5.3V217h-3.4v-23.3h-4.6v-2.9h4.6V181.1z"/>
			<path class="st0" d="M354.6,208.3l2.8,1.5c-0.9,1.8-2,3.3-3.2,4.5c-1.3,1.1-2.6,2-4.2,2.6c-1.5,0.5-3.3,0.9-5.2,0.9
				c-4.3,0-7.6-1.4-10-4.2s-3.6-6-3.6-9.5c0-3.3,1-6.3,3.1-8.9c2.6-3.3,6-4.9,10.4-4.9c4.5,0,8,1.7,10.7,5.1
				c1.9,2.4,2.8,5.4,2.9,8.9h-23.6c0.1,3.1,1,5.6,2.9,7.5c1.9,2,4.2,2.9,7,2.9c1.3,0,2.7-0.2,3.9-0.7c1.3-0.5,2.4-1.1,3.2-1.9
				C352.6,211.3,353.5,210,354.6,208.3z M354.6,201.3c-0.5-1.8-1.1-3.2-2-4.3s-2-2-3.4-2.6s-2.9-1-4.5-1c-2.6,0-4.8,0.9-6.7,2.5
				c-1.3,1.2-2.4,3-3.1,5.4L354.6,201.3L354.6,201.3z"/>
			<path class="st0" d="M366.8,190.8h3.5v3.8c1-1.5,2.1-2.7,3.2-3.4c1.2-0.8,2.4-1.1,3.5-1.1c0.9,0,2,0.3,3,0.9l-1.7,2.8
				c-0.7-0.3-1.3-0.5-1.8-0.5c-1.1,0-2.2,0.5-3.2,1.4s-1.8,2.4-2.4,4.3c-0.4,1.5-0.6,4.5-0.6,9v8.9h-3.5V190.8z"/>
			<path class="st0" d="M386.3,190.8h3.4v4.7c1.3-1.8,2.8-3.1,4.5-4c1.6-0.9,3.5-1.3,5.3-1.3c2,0,3.7,0.5,5.3,1.5
				c1.5,1,2.7,2.4,3.4,4c0.7,1.7,1.1,4.3,1.1,7.8V217h-3.4v-12.5c0-3-0.2-5-0.4-6c-0.4-1.7-1.2-3.1-2.3-3.9s-2.6-1.3-4.3-1.3
				c-2,0-3.8,0.7-5.5,2c-1.6,1.3-2.7,3-3.2,5c-0.3,1.3-0.5,3.7-0.5,7.1v9.6h-3.4V190.8z"/>
			<path class="st0" d="M444.1,190.8V217h-3.3v-4.5c-1.4,1.7-3,3-4.8,3.8c-1.7,0.9-3.7,1.3-5.8,1.3c-3.7,0-6.9-1.3-9.5-4
				c-2.6-2.7-3.9-6-3.9-9.8s1.3-7,4-9.6c2.7-2.7,5.8-4,9.6-4c2.1,0,4.1,0.5,5.8,1.3c1.7,0.9,3.3,2.3,4.6,4.2V191h3.3V190.8z
				 M430.6,193.4c-1.9,0-3.6,0.5-5.2,1.4c-1.6,0.9-2.8,2.2-3.8,3.9c-0.9,1.6-1.4,3.5-1.4,5.3c0,1.9,0.5,3.6,1.4,5.3
				c0.9,1.7,2.2,3,3.8,3.9s3.3,1.4,5.1,1.4c1.9,0,3.6-0.5,5.3-1.4c1.6-0.9,2.9-2.2,3.8-3.8c0.9-1.6,1.3-3.4,1.3-5.3
				c0-3.1-1-5.6-3-7.6C435.9,194.4,433.5,193.4,430.6,193.4z"/>
			<path class="st0" d="M457,181.1h3.4v9.7h5.3v2.9h-5.3V217H457v-23.3h-4.6v-2.9h4.6V181.1z"/>
			<path class="st0" d="M476.4,180c0.8,0,1.4,0.2,2,0.8c0.5,0.5,0.8,1.2,0.8,2s-0.2,1.4-0.8,2c-0.5,0.5-1.2,0.8-2,0.8
				c-0.7,0-1.4-0.2-2-0.8c-0.5-0.5-0.8-1.2-0.8-2s0.2-1.4,0.8-2C475,180.3,475.7,180,476.4,180z M474.7,190.8h3.4V217h-3.4V190.8z"
				/>
			<path class="st0" d="M499,190.1c4,0,7.4,1.5,10,4.4c2.4,2.7,3.6,5.8,3.6,9.5s-1.3,6.8-3.8,9.6c-2.6,2.7-5.8,4.1-9.8,4.1
				s-7.3-1.3-9.9-4.1c-2.6-2.7-3.8-6-3.8-9.6s1.2-6.7,3.6-9.4C491.6,191.6,495,190.1,499,190.1z M499,193.4c-2.8,0-5.2,1-7.2,3.1
				c-2,2-3.1,4.5-3.1,7.5c0,1.9,0.5,3.7,1.4,5.3s2.2,2.9,3.7,3.8c1.6,0.9,3.3,1.3,5.2,1.3s3.6-0.5,5.2-1.3s2.8-2.1,3.7-3.8
				c0.9-1.6,1.4-3.4,1.4-5.3c0-2.9-1-5.4-3.1-7.5C504.2,194.5,501.8,193.4,499,193.4z"/>
			<path class="st0" d="M520.4,190.8h3.4v4.7c1.3-1.8,2.8-3.1,4.5-4c1.6-0.9,3.5-1.3,5.3-1.3c2,0,3.7,0.5,5.3,1.5
				c1.5,1,2.7,2.4,3.4,4c0.7,1.7,1.1,4.3,1.1,7.8V217H540v-12.5c0-3-0.2-5-0.4-6c-0.4-1.7-1.2-3.1-2.3-3.9s-2.6-1.3-4.3-1.3
				c-2,0-3.8,0.7-5.5,2s-2.7,3-3.2,5c-0.3,1.3-0.5,3.7-0.5,7.1v9.6h-3.4L520.4,190.8L520.4,190.8z"/>
			<path class="st0" d="M579.1,190.8V217h-3.3v-4.5c-1.4,1.7-3,3-4.8,3.8c-1.7,0.9-3.7,1.3-5.8,1.3c-3.7,0-6.9-1.3-9.5-4
				s-3.9-6-3.9-9.8s1.3-7,4-9.6c2.7-2.7,5.8-4,9.6-4c2.2,0,4.1,0.5,5.8,1.3c1.7,0.9,3.3,2.3,4.5,4.2V191h3.4V190.8z M565.6,193.4
				c-1.9,0-3.6,0.5-5.2,1.4c-1.6,0.9-2.8,2.2-3.8,3.9c-0.9,1.6-1.4,3.5-1.4,5.3c0,1.9,0.5,3.6,1.4,5.3s2.2,3,3.8,3.9
				s3.3,1.4,5.2,1.4s3.6-0.5,5.3-1.4c1.6-0.9,2.9-2.2,3.8-3.8c0.9-1.6,1.3-3.4,1.3-5.3c0-3.1-1-5.6-3-7.6
				C571,194.4,568.5,193.4,565.6,193.4z"/>
			<path class="st0" d="M588.6,180.7h3.4V217h-3.4V180.7z"/>
		</g>
		<g>
			<path class="st0" d="M186.8,216.8v-35.2h7.3c5.3,0,9.1,0.4,11.5,1.3c3.4,1.2,6.1,3.3,8,6.2c2,3,2.9,6.4,2.9,10.5
				c0,3.5-0.8,6.6-2.3,9.3s-3.5,4.6-6,6c-2.4,1.3-5.8,1.9-10.2,1.9H186.8L186.8,216.8z M190.2,213.4h4.1c4.9,0,8.2-0.3,10.1-0.9
				c2.7-0.9,4.7-2.4,6.2-4.6c1.5-2.3,2.3-4.9,2.3-8.2c0-3.4-0.8-6.3-2.4-8.7s-3.9-4.1-6.8-4.9c-2.2-0.7-5.8-1-10.9-1h-2.5v28.3
				H190.2z"/>
			<path class="st0" d="M234.1,190c4,0,7.4,1.5,10,4.4c2.4,2.7,3.6,5.8,3.6,9.4s-1.3,6.8-3.8,9.5s-5.8,4.1-9.8,4.1s-7.2-1.3-9.8-4.1
				c-2.5-2.7-3.8-5.9-3.8-9.5s1.2-6.7,3.6-9.4C226.8,191.5,230.1,190,234.1,190z M234.1,193.3c-2.8,0-5.2,1-7.2,3.1
				c-2,2-3,4.5-3,7.5c0,1.9,0.5,3.6,1.4,5.3s2.1,2.9,3.7,3.8c1.6,0.9,3.3,1.3,5.1,1.3c1.8,0,3.5-0.5,5.1-1.3s2.8-2.1,3.7-3.8
				c0.9-1.6,1.3-3.4,1.3-5.3c0-2.9-1-5.4-3-7.5C239.2,194.4,236.9,193.3,234.1,193.3z"/>
			<path class="st0" d="M28,216.8l5-35.1h0.5l14.3,28.9l14.1-28.9h0.5l5,35.1h-3.5l-3.5-25.2l-12.5,25.2H47l-12.6-25.3l-3.5,25.3
				L28,216.8L28,216.8z"/>
			<path class="st0" d="M94,208.2l2.8,1.5c-0.9,1.8-2,3.3-3.2,4.4c-1.2,1.1-2.6,2-4.1,2.5c-1.5,0.6-3.2,0.9-5.1,0.9
				c-4.2,0-7.5-1.4-10-4.2c-2.4-2.8-3.6-6-3.6-9.4c0-3.3,1-6.3,3.1-8.8c2.6-3.3,6-4.9,10.3-4.9c4.5,0,8,1.7,10.7,5
				c1.9,2.4,2.8,5.3,2.9,8.9H74.3c0.1,3.1,1,5.5,2.9,7.5c1.9,1.9,4.2,2.9,6.9,2.9c1.3,0,2.6-0.2,3.8-0.7c1.3-0.5,2.4-1.1,3.2-1.8
				C92,211.1,93,209.8,94,208.2z M94,201.1c-0.5-1.8-1.1-3.2-2-4.3s-2-2-3.4-2.6s-2.9-0.9-4.5-0.9c-2.5,0-4.7,0.8-6.6,2.4
				c-1.3,1.2-2.4,3-3.1,5.4L94,201.1L94,201.1z"/>
			<path class="st0" d="M127.9,180.7v36.1h-3.3v-4.5c-1.4,1.7-3,3-4.7,3.8c-1.7,0.9-3.7,1.3-5.7,1.3c-3.7,0-6.8-1.3-9.4-4
				c-2.6-2.7-3.9-6-3.9-9.7c0-3.8,1.3-7,3.9-9.6c2.6-2.7,5.8-4,9.5-4c2.1,0,4.1,0.5,5.8,1.4s3.3,2.3,4.5,4.1v-14.8L127.9,180.7
				L127.9,180.7z M114.5,193.3c-1.9,0-3.6,0.5-5.2,1.4c-1.6,0.9-2.8,2.2-3.8,3.8c-0.9,1.6-1.4,3.4-1.4,5.3c0,1.8,0.5,3.6,1.4,5.3
				c0.9,1.6,2.2,3,3.8,3.9s3.3,1.4,5.1,1.4s3.5-0.5,5.2-1.4c1.6-0.9,2.9-2.2,3.8-3.8s1.3-3.4,1.3-5.3c0-3-1-5.5-3-7.5
				C119.9,194.3,117.4,193.3,114.5,193.3z"/>
			<path class="st0" d="M137.2,180c0.8,0,1.4,0.2,2,0.8s0.8,1.2,0.8,2s-0.3,1.4-0.8,2c-0.5,0.5-1.2,0.8-2,0.8
				c-0.7,0-1.4-0.3-1.9-0.8s-0.8-1.2-0.8-2s0.3-1.4,0.8-2C135.9,180.3,136.5,180,137.2,180z M135.5,190.7h3.4v26h-3.4V190.7z"/>
			<path class="st0" d="M170.8,190.7v26h-3.3v-4.5c-1.4,1.7-3,3-4.7,3.8s-3.7,1.3-5.7,1.3c-3.7,0-6.8-1.3-9.4-4
				c-2.6-2.7-3.9-6-3.9-9.7c0-3.8,1.3-7,3.9-9.6c2.7-2.7,5.8-4,9.5-4c2.1,0,4.1,0.5,5.8,1.4s3.2,2.3,4.5,4.1v-4.8H170.8z
				 M157.4,193.3c-1.9,0-3.6,0.5-5.2,1.4c-1.6,0.9-2.8,2.2-3.8,3.8s-1.4,3.4-1.4,5.3c0,1.8,0.5,3.6,1.4,5.3s2.2,3,3.8,3.9
				s3.3,1.4,5.1,1.4s3.6-0.5,5.2-1.4c1.6-0.9,2.9-2.2,3.8-3.8s1.3-3.4,1.3-5.3c0-3-1-5.5-3-7.5C162.7,194.3,160.3,193.3,157.4,193.3
				z"/>
		</g>
	</g>
	<g>
		<rect x="28" y="22.2" class="st1" width="19.7" height="129.5"/>
		<rect x="55.5" y="39.3" class="st2" width="19.7" height="97.1"/>
		<rect x="82.9" y="59.8" class="st3" width="19.7" height="91.9"/>
		<rect x="110.4" y="39.3" class="st2" width="19.7" height="97.1"/>
		<rect x="137.7" y="22.2" class="st1" width="19.7" height="129.5"/>
	</g>
	<g>
		<rect x="487.7" y="77.6" class="st0" width="38.1" height="16.2"/>
		<path class="st0" d="M430.7,26.8c-8.7-3.1-22.4-4.6-40.8-4.6h-29.4v129.5h42.8c15.7,0,28.2-2.4,37.1-7.1
			c9-4.7,16.5-12.2,22.2-22.1c5.6-9.8,8.4-21.3,8.4-34.1c0-14.7-3.5-27.8-10.6-38.5C453.4,39,443.4,31.2,430.7,26.8z M380.9,42.8
			h4.2c16.8,0,28.9,1.1,36,3.3c9,2.7,16.2,7.8,21.2,15.2c5.1,7.5,7.7,16.7,7.7,27.4c0,10.1-2.4,18.7-7.1,25.7
			c-4.7,7-11,11.6-19.1,14.2c-5.9,1.9-17.1,2.9-33.3,2.9h-9.6L380.9,42.8L380.9,42.8z"/>
		<polygon class="st0" points="327,22.2 321.1,22.2 272.3,113.9 223.6,22.2 217.7,22.2 199.2,151.6 220.3,151.6 230.3,78.5 
			269.3,151.6 275.4,151.6 314.4,78.5 324.4,151.6 345.5,151.6 327.2,23.6 		"/>
	</g>
	<g>
		<path class="st0" d="M578.7,98.7c-1,1.8-10.1,18-14,23.7c-4.3,6.3-8.3,11.8-12.9,16.1c-3,2.7-5.5,4.4-8.1,5.3
			c-0.6,0.2-1.1,0.4-1.7,0.4c-0.1,0-0.2,0-0.2,0c-0.8-0.1-0.9-0.9-0.9-1.6c0-0.9,0.9-3.6,1.6-5.3l39.6-86.9l-20.2,1l-29.3,64.1
			c-0.4,0.9-0.9,1.7-1.3,2.7c-2.5,5-6,11.8-6,20.2c0,10.5,7.5,15.3,14.4,15.3c1.4,0,3-0.1,4.8-0.5c4.1-1,8.9-3.8,13.5-8.1
			c5.3-4.9,9.6-10.9,14.3-17.6c4.4-6.4,14.4-24.2,14.5-24.4l1.8-3.2l-7.9-4.4L578.7,98.7z"/>
	</g>
	<path class="st0" d="M589.3,19c-2.1-2.4-5-3.7-8.4-3.7c-6.5,0-12.3,5.1-13.3,11.6c-0.5,3.3,0.5,6.5,2.6,8.9s5,3.7,8.4,3.7
		c6.5,0,12.3-5.1,13.2-11.6C592.3,24.5,591.4,21.3,589.3,19z"/>
</g>
</svg>
