<?xml version="1.0" encoding="utf-8"?>
<!DOCTYPE svg PUBLIC "-//W3C//DTD SVG 1.1//EN" "http://www.w3.org/Graphics/SVG/1.1/DTD/svg11.dtd">
<svg version="1.1" xmlns="http://www.w3.org/2000/svg" xmlns:xlink="http://www.w3.org/1999/xlink" x="0px" y="0px" width="132px"
	 height="32px" viewBox="0 0 132 32" style="enable-background:new 0 0 132 32;" xml:space="preserve">
<g>
	<path style="fill:#cccccc;" d="M12.481,23.796H6.439l-1.143,6.166H1L6.439,1.623h6.021l5.73,28.339h-4.506L12.481,23.796z
		 M11.733,19.748L9.407,7.062L7.146,19.748H11.733z"/>
	<path style="fill:#cccccc;" d="M36.555,10.842h-4.383c0-0.264,0-0.457,0-0.582c0-3.295-1.105-4.941-3.32-4.941
		c-1.203,0-2.07,0.465-2.598,1.391c-0.316,0.582-0.512,1.203-0.578,1.867c-0.059,0.637-0.086,1.371-0.086,2.203v9.426
		c0,1.979,0.16,3.391,0.48,4.234c0.469,1.219,1.418,1.828,2.844,1.828c2.254,0,3.383-1.855,3.383-5.566c0-0.164,0-0.4,0-0.705h4.383
		c0.012,0.486,0.02,0.838,0.02,1.061c0,2.738-0.555,4.912-1.66,6.518c-1.301,1.869-3.344,2.803-6.125,2.803
		c-2.949,0-5.066-1.051-6.355-3.156c-0.676-1.094-1.078-2.305-1.203-3.633c-0.109-1.107-0.164-2.436-0.164-3.986v-7.91
		c0-2.713,0.172-4.596,0.516-5.646c0.609-1.883,1.719-3.219,3.324-4.008c1.105-0.553,2.379-0.83,3.82-0.83
		c2.406,0,4.281,0.74,5.625,2.221c1.398,1.551,2.098,3.717,2.098,6.5C36.574,10.148,36.566,10.453,36.555,10.842z"/>
	<path style="fill:#cccccc;" d="M48.766,5.672v24.29h-4.4V5.672h-5.501V1.623h15.383v4.049H48.766z"/>
	<path style="fill:#cccccc;" d="M62.231,1.622v28.34h-4.402V1.622H62.231z"/>
	<path style="fill:#cccccc;" d="M77.334,29.963h-5.439l-6.08-28.34h4.525l4.277,21.551l3.734-21.551h4.444L77.334,29.963z"/>
	<path style="fill:#cccccc;" d="M90.781,1.622v28.34h-4.402V1.622H90.781z"/>
	<path style="fill:#cccccc;" d="M104.265,5.672v24.29h-4.4V5.672h-5.501V1.623h15.383v4.049H104.265z"/>
	<path style="fill:#cccccc;" d="M119.654,29.962V18.059l-7.77-16.372h5.015l4.987,11.181l4.919-11.181h4.927l-7.805,16.41v11.865
		H119.654z"/>
</g>
</svg>
